<svg xmlns="http://www.w3.org/2000/svg" xmlns:xlink="http://www.w3.org/1999/xlink" contentStyleType="text/css" data-diagram-type="CLASS" height="1348px" preserveAspectRatio="none" style="width:1379px;height:1348px;background:#FFFFFF;" version="1.1" viewBox="0 0 1379 1348" width="1379px" zoomAndPan="magnify"><?plantuml 1.2026.3beta6?><defs/><g><g class="title" data-source-line="6"><text fill="#000000" font-family="sans-serif" font-size="14" font-weight="700" lengthAdjust="spacing" textLength="526.4082" x="422.7959" y="22.9951">BFZ-Systemhaus Ticketmanager - Vereinfachtes Klassendiagramm</text></g><!--cluster Modell--><g class="cluster" data-qualified-name="Modell" data-source-line="8" id="ent0002"><rect fill="none" height="881.38" rx="2.5" ry="2.5" style="stroke:#000000;stroke-width:1.5;" width="440" x="604" y="453.2669"/><text fill="#000000" font-family="sans-serif" font-size="14" font-weight="700" lengthAdjust="spacing" textLength="52.6641" x="797.668" y="468.262">Modell</text></g><!--cluster Datenhaltung--><g class="cluster" data-qualified-name="Datenhaltung" data-source-line="57" id="ent0010"><rect fill="none" height="180.49" rx="2.5" ry="2.5" style="stroke:#000000;stroke-width:1.5;" width="879" x="486" y="248.7769"/><text fill="#000000" font-family="sans-serif" font-size="14" font-weight="700" lengthAdjust="spacing" textLength="108.083" x="871.4585" y="263.772">Datenhaltung</text></g><!--cluster Benutzeroberfl?che--><g class="cluster" data-qualified-name="Benutzeroberfl.che" data-source-line="76" id="ent0014"><rect fill="none" height="303.48" rx="2.5" ry="2.5" style="stroke:#000000;stroke-width:1.5;" width="455" x="7" y="273.2269"/><text fill="#000000" font-family="sans-serif" font-size="14" font-weight="700" lengthAdjust="spacing" textLength="155.4766" x="156.7617" y="288.222">Benutzeroberfl&#228;che</text></g><!--cluster Steuerung--><g class="cluster" data-qualified-name="Steuerung" data-source-line="92" id="ent0018"><rect fill="none" height="180.48" rx="2.5" ry="2.5" style="stroke:#000000;stroke-width:1.5;" width="236" x="477" y="44.2969"/><text fill="#000000" font-family="sans-serif" font-size="14" font-weight="700" lengthAdjust="spacing" textLength="82.5918" x="553.7041" y="59.292">Steuerung</text></g><!--class Identifiable--><g class="entity" data-qualified-name="Modell.Identifiable" data-source-line="9" id="ent0003"><rect fill="#F1F1F1" height="64.2969" rx="2.5" ry="2.5" style="stroke:#181818;stroke-width:0.5;" width="118.4014" x="619.8" y="488.2669"/><ellipse cx="638.28" cy="504.2669" fill="#B4A7E5" rx="11" ry="11" style="stroke:#181818;stroke-width:1;"/><path d="M634.2019,500.0325 L634.2019,497.8762 L641.5925,497.8762 L641.5925,500.0325 L639.1238,500.0325 L639.1238,508.1106 L641.5925,508.1106 L641.5925,510.2669 L634.2019,510.2669 L634.2019,508.1106 L636.6707,508.1106 L636.6707,500.0325 L634.2019,500.0325 Z " fill="#000000"/><text fill="#000000" font-family="sans-serif" font-size="14" font-style="italic" lengthAdjust="spacing" textLength="78.668" x="653.0534" y="509.1136">Identifiable</text><line style="stroke:#181818;stroke-width:0.5;" x1="620.8" x2="737.2014" y1="520.2669" y2="520.2669"/><line style="stroke:#181818;stroke-width:0.5;" x1="620.8" x2="737.2014" y1="528.2669" y2="528.2669"/><text fill="#000000" font-family="sans-serif" font-size="14" lengthAdjust="spacing" textLength="106.4014" x="625.8" y="545.262">+getId() : Long</text></g><!--class Benutzer--><g class="entity" data-qualified-name="Modell.Benutzer" data-source-line="13" id="ent0004"><rect fill="#F1F1F1" height="145.7813" rx="2.5" ry="2.5" style="stroke:#181818;stroke-width:0.5;" width="154.3447" x="662.83" y="620.7069"/><ellipse cx="704.4582" cy="636.7069" fill="#ADD1B2" rx="11" ry="11" style="stroke:#181818;stroke-width:1;"/><path d="M707.427,642.3475 Q706.8488,642.6444 706.2082,642.785 Q705.5676,642.9412 704.8645,642.9412 Q702.3645,642.9412 701.0363,641.3006 Q699.7238,639.6444 699.7238,636.5194 Q699.7238,633.3944 701.0363,631.7381 Q702.3645,630.0819 704.8645,630.0819 Q705.5676,630.0819 706.2082,630.2381 Q706.8645,630.3944 707.427,630.6912 L707.427,633.41 Q706.802,632.8319 706.2082,632.5662 Q705.6145,632.285 704.9895,632.285 Q703.6457,632.285 702.9582,633.3631 Q702.2707,634.4256 702.2707,636.5194 Q702.2707,638.6131 702.9582,639.6912 Q703.6457,640.7537 704.9895,640.7537 Q705.6145,640.7537 706.2082,640.4881 Q706.802,640.2069 707.427,639.6287 L707.427,642.3475 Z " fill="#000000"/><text fill="#000000" font-family="sans-serif" font-size="14" lengthAdjust="spacing" textLength="63.1709" x="724.3756" y="641.5536">Benutzer</text><line style="stroke:#181818;stroke-width:0.5;" x1="663.83" x2="816.1747" y1="652.7069" y2="652.7069"/><text fill="#000000" font-family="sans-serif" font-size="14" lengthAdjust="spacing" textLength="65.5703" x="668.83" y="669.702">-id : Long</text><text fill="#000000" font-family="sans-serif" font-size="14" lengthAdjust="spacing" textLength="100.1533" x="668.83" y="685.9989">-name : String</text><text fill="#000000" font-family="sans-serif" font-size="14" lengthAdjust="spacing" textLength="99.0596" x="668.83" y="702.2957">-email : String</text><line style="stroke:#181818;stroke-width:0.5;" x1="663.83" x2="816.1747" y1="709.5975" y2="709.5975"/><text fill="#000000" font-family="sans-serif" font-size="14" lengthAdjust="spacing" textLength="106.4014" x="668.83" y="726.5926">+getId() : Long</text><text fill="#000000" font-family="sans-serif" font-size="14" lengthAdjust="spacing" textLength="142.3447" x="668.83" y="742.8895">+getName() : String</text><text fill="#000000" font-family="sans-serif" font-size="14" lengthAdjust="spacing" textLength="139.8838" x="668.83" y="759.1864">+getEmail() : String</text></g><!--class Kunde--><g class="entity" data-qualified-name="Modell.Kunde" data-source-line="22" id="ent0005"><rect fill="#F1F1F1" height="80.5938" rx="2.5" ry="2.5" style="stroke:#181818;stroke-width:0.5;" width="169.0762" x="858.46" y="826.4869"/><ellipse cx="916.5347" cy="842.4869" fill="#ADD1B2" rx="11" ry="11" style="stroke:#181818;stroke-width:1;"/><path d="M919.5035,848.1275 Q918.9253,848.4244 918.2847,848.565 Q917.6441,848.7212 916.941,848.7212 Q914.441,848.7212 913.1128,847.0806 Q911.8003,845.4244 911.8003,842.2994 Q911.8003,839.1744 913.1128,837.5181 Q914.441,835.8619 916.941,835.8619 Q917.6441,835.8619 918.2847,836.0181 Q918.941,836.1744 919.5035,836.4712 L919.5035,839.19 Q918.8785,838.6119 918.2847,838.3462 Q917.691,838.065 917.066,838.065 Q915.7222,838.065 915.0347,839.1431 Q914.3472,840.2056 914.3472,842.2994 Q914.3472,844.3931 915.0347,845.4712 Q915.7222,846.5337 917.066,846.5337 Q917.691,846.5337 918.2847,846.2681 Q918.8785,845.9869 919.5035,845.4087 L919.5035,848.1275 Z " fill="#000000"/><text fill="#000000" font-family="sans-serif" font-size="14" lengthAdjust="spacing" textLength="44.4268" x="937.0347" y="847.3336">Kunde</text><line style="stroke:#181818;stroke-width:0.5;" x1="859.46" x2="1026.5362" y1="858.4869" y2="858.4869"/><text fill="#000000" font-family="sans-serif" font-size="14" lengthAdjust="spacing" textLength="115.4863" x="864.46" y="875.482">-adresse : String</text><line style="stroke:#181818;stroke-width:0.5;" x1="859.46" x2="1026.5362" y1="882.7837" y2="882.7837"/><text fill="#000000" font-family="sans-serif" font-size="14" lengthAdjust="spacing" textLength="157.0762" x="864.46" y="899.7789">+getAdresse() : String</text></g><!--class Admin--><g class="entity" data-qualified-name="Modell.Admin" data-source-line="27" id="ent0006"><rect fill="#F1F1F1" height="80.5938" rx="2.5" ry="2.5" style="stroke:#181818;stroke-width:0.5;" width="166.0889" x="656.96" y="826.4869"/><ellipse cx="713.3223" cy="842.4869" fill="#ADD1B2" rx="11" ry="11" style="stroke:#181818;stroke-width:1;"/><path d="M716.2911,848.1275 Q715.7129,848.4244 715.0723,848.565 Q714.4317,848.7212 713.7286,848.7212 Q711.2286,848.7212 709.9004,847.0806 Q708.5879,845.4244 708.5879,842.2994 Q708.5879,839.1744 709.9004,837.5181 Q711.2286,835.8619 713.7286,835.8619 Q714.4317,835.8619 715.0723,836.0181 Q715.7286,836.1744 716.2911,836.4712 L716.2911,839.19 Q715.6661,838.6119 715.0723,838.3462 Q714.4786,838.065 713.8536,838.065 Q712.5098,838.065 711.8223,839.1431 Q711.1348,840.2056 711.1348,842.2994 Q711.1348,844.3931 711.8223,845.4712 Q712.5098,846.5337 713.8536,846.5337 Q714.4786,846.5337 715.0723,846.2681 Q715.6661,845.9869 716.2911,845.4087 L716.2911,848.1275 Z " fill="#000000"/><text fill="#000000" font-family="sans-serif" font-size="14" lengthAdjust="spacing" textLength="44.8643" x="733.8223" y="847.3336">Admin</text><line style="stroke:#181818;stroke-width:0.5;" x1="657.96" x2="822.0489" y1="858.4869" y2="858.4869"/><text fill="#000000" font-family="sans-serif" font-size="14" lengthAdjust="spacing" textLength="112.7793" x="662.96" y="875.482">-bereich : String</text><line style="stroke:#181818;stroke-width:0.5;" x1="657.96" x2="822.0489" y1="882.7837" y2="882.7837"/><text fill="#000000" font-family="sans-serif" font-size="14" lengthAdjust="spacing" textLength="154.0889" x="662.96" y="899.7789">+getBereich() : String</text></g><!--class Ticket--><g class="entity" data-qualified-name="Modell.Ticket" data-source-line="32" id="ent0007"><rect fill="#F1F1F1" height="194.6719" rx="2.5" ry="2.5" style="stroke:#181818;stroke-width:0.5;" width="186.9248" x="619.54" y="967.0869"/><ellipse cx="687.5781" cy="983.0869" fill="#ADD1B2" rx="11" ry="11" style="stroke:#181818;stroke-width:1;"/><path d="M690.5468,988.7275 Q689.9687,989.0244 689.3281,989.165 Q688.6875,989.3213 687.9843,989.3213 Q685.4843,989.3213 684.1562,987.6806 Q682.8437,986.0244 682.8437,982.8994 Q682.8437,979.7744 684.1562,978.1181 Q685.4843,976.4619 687.9843,976.4619 Q688.6875,976.4619 689.3281,976.6181 Q689.9843,976.7744 690.5468,977.0713 L690.5468,979.79 Q689.9218,979.2119 689.3281,978.9463 Q688.7343,978.665 688.1093,978.665 Q686.7656,978.665 686.0781,979.7431 Q685.3906,980.8056 685.3906,982.8994 Q685.3906,984.9931 686.0781,986.0713 Q686.7656,987.1338 688.1093,987.1338 Q688.7343,987.1338 689.3281,986.8681 Q689.9218,986.5869 690.5468,986.0088 L690.5468,988.7275 Z " fill="#000000"/><text fill="#000000" font-family="sans-serif" font-size="14" lengthAdjust="spacing" textLength="42.3486" x="708.0781" y="987.9336">Ticket</text><line style="stroke:#181818;stroke-width:0.5;" x1="620.54" x2="805.4648" y1="999.0869" y2="999.0869"/><text fill="#000000" font-family="sans-serif" font-size="14" lengthAdjust="spacing" textLength="65.5703" x="625.54" y="1016.082">-id : Long</text><text fill="#000000" font-family="sans-serif" font-size="14" lengthAdjust="spacing" textLength="87.8213" x="625.54" y="1032.3789">-titel : String</text><text fill="#000000" font-family="sans-serif" font-size="14" lengthAdjust="spacing" textLength="155.5928" x="625.54" y="1048.6757">-beschreibung : String</text><text fill="#000000" font-family="sans-serif" font-size="14" lengthAdjust="spacing" textLength="148.0527" x="625.54" y="1064.9726">-prioritaet : Prioritaet</text><text fill="#000000" font-family="sans-serif" font-size="14" lengthAdjust="spacing" textLength="106.2988" x="625.54" y="1081.2695">-status : Status</text><line style="stroke:#181818;stroke-width:0.5;" x1="620.54" x2="805.4648" y1="1088.5713" y2="1088.5713"/><text fill="#000000" font-family="sans-serif" font-size="14" lengthAdjust="spacing" textLength="106.4014" x="625.54" y="1105.5664">+getId() : Long</text><text fill="#000000" font-family="sans-serif" font-size="14" lengthAdjust="spacing" textLength="131.4756" x="625.54" y="1121.8632">+getTitel() : String</text><text fill="#000000" font-family="sans-serif" font-size="14" lengthAdjust="spacing" textLength="148.4834" x="625.54" y="1138.1601">+getStatus() : Status</text><text fill="#000000" font-family="sans-serif" font-size="14" lengthAdjust="spacing" textLength="174.9248" x="625.54" y="1154.457">+setStatus(status) : void</text></g><!--class Prioritaet--><g class="entity" data-qualified-name="Modell.Prioritaet" data-source-line="44" id="ent0008"><rect fill="#F1F1F1" height="96.8906" rx="2.5" ry="2.5" style="stroke:#181818;stroke-width:0.5;" width="96.4697" x="641.77" y="1221.7569"/><ellipse cx="656.77" cy="1237.7569" fill="#EB937F" rx="11" ry="11" style="stroke:#181818;stroke-width:1;"/><path d="M660.8794,1243.7569 L653.1606,1243.7569 L653.1606,1231.3663 L660.8794,1231.3663 L660.8794,1233.5225 L655.6138,1233.5225 L655.6138,1236.1944 L660.3794,1236.1944 L660.3794,1238.3506 L655.6138,1238.3506 L655.6138,1241.6006 L660.8794,1241.6006 L660.8794,1243.7569 Z " fill="#000000"/><text fill="#000000" font-family="sans-serif" font-size="14" lengthAdjust="spacing" textLength="64.4697" x="670.77" y="1242.6036">Prioritaet</text><line style="stroke:#181818;stroke-width:0.5;" x1="642.77" x2="737.2397" y1="1253.7569" y2="1253.7569"/><text fill="#000000" font-family="sans-serif" font-size="14" lengthAdjust="spacing" textLength="58.9326" x="647.77" y="1270.752">NIEDRIG</text><text fill="#000000" font-family="sans-serif" font-size="14" lengthAdjust="spacing" textLength="49.957" x="647.77" y="1287.0489">MITTEL</text><text fill="#000000" font-family="sans-serif" font-size="14" lengthAdjust="spacing" textLength="41.8496" x="647.77" y="1303.3457">HOCH</text><line style="stroke:#181818;stroke-width:0.5;" x1="642.77" x2="737.2397" y1="1310.6475" y2="1310.6475"/></g><!--class Status--><g class="entity" data-qualified-name="Modell.Status" data-source-line="50" id="ent0009"><rect fill="#F1F1F1" height="96.8906" rx="2.5" ry="2.5" style="stroke:#181818;stroke-width:0.5;" width="116.7949" x="773.6" y="1221.7569"/><ellipse cx="806.6826" cy="1237.7569" fill="#EB937F" rx="11" ry="11" style="stroke:#181818;stroke-width:1;"/><path d="M810.792,1243.7569 L803.0732,1243.7569 L803.0732,1231.3663 L810.792,1231.3663 L810.792,1233.5225 L805.5264,1233.5225 L805.5264,1236.1944 L810.292,1236.1944 L810.292,1238.3506 L805.5264,1238.3506 L805.5264,1241.6006 L810.792,1241.6006 L810.792,1243.7569 Z " fill="#000000"/><text fill="#000000" font-family="sans-serif" font-size="14" lengthAdjust="spacing" textLength="44.6113" x="824.701" y="1242.6036">Status</text><line style="stroke:#181818;stroke-width:0.5;" x1="774.6" x2="889.3949" y1="1253.7569" y2="1253.7569"/><text fill="#000000" font-family="sans-serif" font-size="14" lengthAdjust="spacing" textLength="46.4434" x="779.6" y="1270.752">OFFEN</text><text fill="#000000" font-family="sans-serif" font-size="14" lengthAdjust="spacing" textLength="72.0371" x="779.6" y="1287.0489">IN_ARBEIT</text><text fill="#000000" font-family="sans-serif" font-size="14" lengthAdjust="spacing" textLength="104.7949" x="779.6" y="1303.3457">GESCHLOSSEN</text><line style="stroke:#181818;stroke-width:0.5;" x1="774.6" x2="889.3949" y1="1310.6475" y2="1310.6475"/></g><!--class Repository--><g class="entity" data-qualified-name="Datenhaltung.Repository" data-source-line="58" id="ent0011"><rect fill="#F1F1F1" height="129.4844" rx="2.5" ry="2.5" style="stroke:#181818;stroke-width:0.5;" width="185.168" x="502.42" y="283.7769"/><ellipse cx="547.5528" cy="299.7769" fill="#ADD1B2" rx="11" ry="11" style="stroke:#181818;stroke-width:1;"/><path d="M550.5216,305.4175 Q549.9434,305.7144 549.3028,305.855 Q548.6622,306.0113 547.9591,306.0113 Q545.4591,306.0113 544.1309,304.3706 Q542.8184,302.7144 542.8184,299.5894 Q542.8184,296.4644 544.1309,294.8081 Q545.4591,293.1519 547.9591,293.1519 Q548.6622,293.1519 549.3028,293.3081 Q549.9591,293.4644 550.5216,293.7613 L550.5216,296.48 Q549.8966,295.9019 549.3028,295.6363 Q548.7091,295.355 548.0841,295.355 Q546.7403,295.355 546.0528,296.4331 Q545.3653,297.4956 545.3653,299.5894 Q545.3653,301.6831 546.0528,302.7613 Q546.7403,303.8238 548.0841,303.8238 Q548.7091,303.8238 549.3028,303.5581 Q549.8966,303.2769 550.5216,302.6988 L550.5216,305.4175 Z " fill="#000000"/><text fill="#000000" font-family="sans-serif" font-size="14" lengthAdjust="spacing" textLength="75.0723" x="568.0528" y="304.6236">Repository</text><rect fill="#FFFFFF" height="15.9688" style="stroke:#181818;stroke-width:1;stroke-dasharray:2,2;" width="9.3301" x="681.2579" y="280.7769"/><text fill="#000000" font-family="sans-serif" font-size="12" font-style="italic" lengthAdjust="spacing" textLength="7.3301" x="682.2579" y="292.9155">T</text><line style="stroke:#181818;stroke-width:0.5;" x1="503.42" x2="686.588" y1="315.7769" y2="315.7769"/><line style="stroke:#181818;stroke-width:0.5;" x1="503.42" x2="686.588" y1="323.7769" y2="323.7769"/><text fill="#000000" font-family="sans-serif" font-size="14" lengthAdjust="spacing" textLength="146.0498" x="508.42" y="340.772">+add(item : T) : void</text><text fill="#000000" font-family="sans-serif" font-size="14" lengthAdjust="spacing" textLength="173.168" x="508.42" y="357.0689">+remove(item : T) : void</text><text fill="#000000" font-family="sans-serif" font-size="14" lengthAdjust="spacing" textLength="169.0254" x="508.42" y="373.3657">+update(item : T) : void</text><text fill="#000000" font-family="sans-serif" font-size="14" lengthAdjust="spacing" textLength="162.8252" x="508.42" y="389.6626">+findById(id : Long) : T</text><text fill="#000000" font-family="sans-serif" font-size="14" lengthAdjust="spacing" textLength="133.1025" x="508.42" y="405.9595">+getAll() : List&lt;T&gt;</text></g><!--class StorageService--><g class="entity" data-qualified-name="Datenhaltung.StorageService" data-source-line="66" id="ent0012"><rect fill="#F1F1F1" height="80.5938" rx="2.5" ry="2.5" style="stroke:#181818;stroke-width:0.5;" width="367.6533" x="722.17" y="308.2269"/><ellipse cx="848.4879" cy="324.2269" fill="#ADD1B2" rx="11" ry="11" style="stroke:#181818;stroke-width:1;"/><path d="M851.4566,329.8675 Q850.8785,330.1644 850.2379,330.305 Q849.5972,330.4612 848.8941,330.4612 Q846.3941,330.4612 845.066,328.8206 Q843.7535,327.1644 843.7535,324.0394 Q843.7535,320.9144 845.066,319.2581 Q846.3941,317.6019 848.8941,317.6019 Q849.5972,317.6019 850.2379,317.7581 Q850.8941,317.9144 851.4566,318.2112 L851.4566,320.93 Q850.8316,320.3519 850.2379,320.0862 Q849.6441,319.805 849.0191,319.805 Q847.6754,319.805 846.9879,320.8831 Q846.3004,321.9456 846.3004,324.0394 Q846.3004,326.1331 846.9879,327.2112 Q847.6754,328.2737 849.0191,328.2737 Q849.6441,328.2737 850.2379,328.0081 Q850.8316,327.7269 851.4566,327.1487 L851.4566,329.8675 Z " fill="#000000"/><text fill="#000000" font-family="sans-serif" font-size="14" lengthAdjust="spacing" textLength="106.5176" x="868.9879" y="329.0736">StorageService</text><line style="stroke:#181818;stroke-width:0.5;" x1="723.17" x2="1088.8233" y1="340.2269" y2="340.2269"/><line style="stroke:#181818;stroke-width:0.5;" x1="723.17" x2="1088.8233" y1="348.2269" y2="348.2269"/><text fill="#000000" font-family="sans-serif" font-size="14" lengthAdjust="spacing" textLength="355.6533" x="728.17" y="365.222">+speichern(list : List&lt;T&gt;, dateiPfad : String) : void</text><text fill="#000000" font-family="sans-serif" font-size="14" lengthAdjust="spacing" textLength="253.292" x="728.17" y="381.5189">+laden(dateiPfad : String) : List&lt;T&gt;</text></g><!--class ApiService--><g class="entity" data-qualified-name="Datenhaltung.ApiService" data-source-line="71" id="ent0013"><rect fill="#F1F1F1" height="64.2969" rx="2.5" ry="2.5" style="stroke:#181818;stroke-width:0.5;" width="223.9004" x="1125.05" y="316.3769"/><ellipse cx="1195.7028" cy="332.3769" fill="#ADD1B2" rx="11" ry="11" style="stroke:#181818;stroke-width:1;"/><path d="M1198.6716,338.0175 Q1198.0935,338.3144 1197.4528,338.455 Q1196.8122,338.6112 1196.1091,338.6112 Q1193.6091,338.6112 1192.281,336.9706 Q1190.9685,335.3144 1190.9685,332.1894 Q1190.9685,329.0644 1192.281,327.4081 Q1193.6091,325.7519 1196.1091,325.7519 Q1196.8122,325.7519 1197.4528,325.9081 Q1198.1091,326.0644 1198.6716,326.3612 L1198.6716,329.08 Q1198.0466,328.5019 1197.4528,328.2362 Q1196.8591,327.955 1196.2341,327.955 Q1194.8903,327.955 1194.2028,329.0331 Q1193.5153,330.0956 1193.5153,332.1894 Q1193.5153,334.2831 1194.2028,335.3612 Q1194.8903,336.4237 1196.2341,336.4237 Q1196.8591,336.4237 1197.4528,336.1581 Q1198.0466,335.8769 1198.6716,335.2987 L1198.6716,338.0175 Z " fill="#000000"/><text fill="#000000" font-family="sans-serif" font-size="14" lengthAdjust="spacing" textLength="74.0947" x="1216.2028" y="337.2236">ApiService</text><line style="stroke:#181818;stroke-width:0.5;" x1="1126.05" x2="1347.9504" y1="348.3769" y2="348.3769"/><line style="stroke:#181818;stroke-width:0.5;" x1="1126.05" x2="1347.9504" y1="356.3769" y2="356.3769"/><text fill="#000000" font-family="sans-serif" font-size="14" lengthAdjust="spacing" textLength="211.9004" x="1131.05" y="373.372">+ladeKunden() : List&lt;Kunde&gt;</text></g><!--class MainFrame--><g class="entity" data-qualified-name="Benutzeroberfl.che.MainFrame" data-source-line="77" id="ent0015"><rect fill="#F1F1F1" height="80.5938" rx="2.5" ry="2.5" style="stroke:#181818;stroke-width:0.5;" width="216.6475" x="22.68" y="308.2269"/><ellipse cx="87.7239" cy="324.2269" fill="#ADD1B2" rx="11" ry="11" style="stroke:#181818;stroke-width:1;"/><path d="M90.6927,329.8675 Q90.1146,330.1644 89.4739,330.305 Q88.8333,330.4612 88.1302,330.4612 Q85.6302,330.4612 84.3021,328.8206 Q82.9896,327.1644 82.9896,324.0394 Q82.9896,320.9144 84.3021,319.2581 Q85.6302,317.6019 88.1302,317.6019 Q88.8333,317.6019 89.4739,317.7581 Q90.1302,317.9144 90.6927,318.2112 L90.6927,320.93 Q90.0677,320.3519 89.4739,320.0862 Q88.8802,319.805 88.2552,319.805 Q86.9114,319.805 86.2239,320.8831 Q85.5364,321.9456 85.5364,324.0394 Q85.5364,326.1331 86.2239,327.2112 Q86.9114,328.2737 88.2552,328.2737 Q88.8802,328.2737 89.4739,328.0081 Q90.0677,327.7269 90.6927,327.1487 L90.6927,329.8675 Z " fill="#000000"/><text fill="#000000" font-family="sans-serif" font-size="14" lengthAdjust="spacing" textLength="78.0596" x="108.2239" y="329.0736">MainFrame</text><line style="stroke:#181818;stroke-width:0.5;" x1="23.68" x2="238.3275" y1="340.2269" y2="340.2269"/><line style="stroke:#181818;stroke-width:0.5;" x1="23.68" x2="238.3275" y1="348.2269" y2="348.2269"/><text fill="#000000" font-family="sans-serif" font-size="14" lengthAdjust="spacing" textLength="154.2529" x="28.68" y="365.222">+refreshTable() : void</text><text fill="#000000" font-family="sans-serif" font-size="14" lengthAdjust="spacing" textLength="204.6475" x="28.68" y="381.5189">+getSelectedTicket() : Ticket</text></g><!--class TicketTableModel--><g class="entity" data-qualified-name="Benutzeroberfl.che.TicketTableModel" data-source-line="82" id="ent0016"><rect fill="#F1F1F1" height="80.5938" rx="2.5" ry="2.5" style="stroke:#181818;stroke-width:0.5;" width="267.4521" x="99.27" y="480.1169"/><ellipse cx="167.2944" cy="496.1169" fill="#ADD1B2" rx="11" ry="11" style="stroke:#181818;stroke-width:1;"/><path d="M170.2632,501.7575 Q169.685,502.0544 169.0444,502.195 Q168.4038,502.3512 167.7007,502.3512 Q165.2007,502.3512 163.8725,500.7106 Q162.56,499.0544 162.56,495.9294 Q162.56,492.8044 163.8725,491.1481 Q165.2007,489.4919 167.7007,489.4919 Q168.4038,489.4919 169.0444,489.6481 Q169.7007,489.8044 170.2632,490.1012 L170.2632,492.82 Q169.6382,492.2419 169.0444,491.9762 Q168.4507,491.695 167.8257,491.695 Q166.4819,491.695 165.7944,492.7731 Q165.1069,493.8356 165.1069,495.9294 Q165.1069,498.0231 165.7944,499.1012 Q166.4819,500.1637 167.8257,500.1637 Q168.4507,500.1637 169.0444,499.8981 Q169.6382,499.6169 170.2632,499.0387 L170.2632,501.7575 Z " fill="#000000"/><text fill="#000000" font-family="sans-serif" font-size="14" lengthAdjust="spacing" textLength="122.9033" x="187.7944" y="500.9636">TicketTableModel</text><line style="stroke:#181818;stroke-width:0.5;" x1="100.27" x2="365.7221" y1="512.1169" y2="512.1169"/><line style="stroke:#181818;stroke-width:0.5;" x1="100.27" x2="365.7221" y1="520.1169" y2="520.1169"/><text fill="#000000" font-family="sans-serif" font-size="14" lengthAdjust="spacing" textLength="255.4521" x="105.27" y="537.112">+getTicketAt(rowIndex : int) : Ticket</text><text fill="#000000" font-family="sans-serif" font-size="14" lengthAdjust="spacing" textLength="115.7324" x="105.27" y="553.4089">+refresh() : void</text></g><!--class TicketFormDialog--><g class="entity" data-qualified-name="Benutzeroberfl.che.TicketFormDialog" data-source-line="87" id="ent0017"><rect fill="#F1F1F1" height="64.2969" rx="2.5" ry="2.5" style="stroke:#181818;stroke-width:0.5;" width="171.3936" x="274.3" y="316.3769"/><ellipse cx="296.6991" cy="332.3769" fill="#ADD1B2" rx="11" ry="11" style="stroke:#181818;stroke-width:1;"/><path d="M299.6678,338.0175 Q299.0897,338.3144 298.4491,338.455 Q297.8084,338.6112 297.1053,338.6112 Q294.6053,338.6112 293.2772,336.9706 Q291.9647,335.3144 291.9647,332.1894 Q291.9647,329.0644 293.2772,327.4081 Q294.6053,325.7519 297.1053,325.7519 Q297.8084,325.7519 298.4491,325.9081 Q299.1053,326.0644 299.6678,326.3612 L299.6678,329.08 Q299.0428,328.5019 298.4491,328.2362 Q297.8553,327.955 297.2303,327.955 Q295.8866,327.955 295.1991,329.0331 Q294.5116,330.0956 294.5116,332.1894 Q294.5116,334.2831 295.1991,335.3612 Q295.8866,336.4237 297.2303,336.4237 Q297.8553,336.4237 298.4491,336.1581 Q299.0428,335.8769 299.6678,335.2987 L299.6678,338.0175 Z " fill="#000000"/><text fill="#000000" font-family="sans-serif" font-size="14" lengthAdjust="spacing" textLength="122.9512" x="312.3433" y="337.2236">TicketFormDialog</text><line style="stroke:#181818;stroke-width:0.5;" x1="275.3" x2="444.6936" y1="348.3769" y2="348.3769"/><line style="stroke:#181818;stroke-width:0.5;" x1="275.3" x2="444.6936" y1="356.3769" y2="356.3769"/><text fill="#000000" font-family="sans-serif" font-size="14" lengthAdjust="spacing" textLength="159.3936" x="280.3" y="373.372">+showDialog() : Ticket</text></g><!--class TicketController--><g class="entity" data-qualified-name="Steuerung.TicketController" data-source-line="93" id="ent0019"><rect fill="#F1F1F1" height="129.4844" rx="2.5" ry="2.5" style="stroke:#181818;stroke-width:0.5;" width="204.2949" x="492.85" y="79.2969"/><ellipse cx="535.198" cy="95.2969" fill="#ADD1B2" rx="11" ry="11" style="stroke:#181818;stroke-width:1;"/><path d="M538.1668,100.9375 Q537.5887,101.2344 536.948,101.375 Q536.3074,101.5313 535.6043,101.5313 Q533.1043,101.5313 531.7762,99.8906 Q530.4637,98.2344 530.4637,95.1094 Q530.4637,91.9844 531.7762,90.3281 Q533.1043,88.6719 535.6043,88.6719 Q536.3074,88.6719 536.948,88.8281 Q537.6043,88.9844 538.1668,89.2813 L538.1668,92 Q537.5418,91.4219 536.948,91.1563 Q536.3543,90.875 535.7293,90.875 Q534.3855,90.875 533.698,91.9531 Q533.0105,93.0156 533.0105,95.1094 Q533.0105,97.2031 533.698,98.2813 Q534.3855,99.3438 535.7293,99.3438 Q536.3543,99.3438 536.948,99.0781 Q537.5418,98.7969 538.1668,98.2188 L538.1668,100.9375 Z " fill="#000000"/><text fill="#000000" font-family="sans-serif" font-size="14" lengthAdjust="spacing" textLength="111.5215" x="555.2754" y="100.1436">TicketController</text><line style="stroke:#181818;stroke-width:0.5;" x1="493.85" x2="696.1449" y1="111.2969" y2="111.2969"/><line style="stroke:#181818;stroke-width:0.5;" x1="493.85" x2="696.1449" y1="119.2969" y2="119.2969"/><text fill="#000000" font-family="sans-serif" font-size="14" lengthAdjust="spacing" textLength="152.9951" x="498.85" y="136.292">+createTicket() : void</text><text fill="#000000" font-family="sans-serif" font-size="14" lengthAdjust="spacing" textLength="135.126" x="498.85" y="152.5889">+editTicket() : void</text><text fill="#000000" font-family="sans-serif" font-size="14" lengthAdjust="spacing" textLength="152.3525" x="498.85" y="168.8857">+deleteTicket() : void</text><text fill="#000000" font-family="sans-serif" font-size="14" lengthAdjust="spacing" textLength="192.2949" x="498.85" y="185.1826">+importiereKunden() : void</text><text fill="#000000" font-family="sans-serif" font-size="14" lengthAdjust="spacing" textLength="148.3125" x="498.85" y="201.4795">+saveTickets() : void</text></g><!--reverse link Identifiable to Benutzer--><g class="link" data-entity-1="ent0003" data-entity-2="ent0004" data-link-type="extension" data-source-line="102" id="lnk20"><path codeLine="102" d="M700.51,570.9869 C700.51,589.9969 700.51,596.7869 700.51,620.2469" fill="none" id="Identifiable-backto-Benutzer" style="stroke:#181818;stroke-width:1;stroke-dasharray:7,7;"/><polygon fill="none" points="700.51,552.9869,694.51,570.9869,706.51,570.9869,700.51,552.9869" style="stroke:#181818;stroke-width:1;"/></g><!--reverse link Identifiable to Ticket--><g class="link" data-entity-1="ent0003" data-entity-2="ent0007" data-link-type="extension" data-source-line="103" id="lnk21"><path codeLine="103" d="M644.57,570.8169 C644.57,650.7569 644.57,841.9469 644.57,966.6869" fill="none" id="Identifiable-backto-Ticket" style="stroke:#181818;stroke-width:1;stroke-dasharray:7,7;"/><polygon fill="none" points="644.57,552.8169,638.57,570.8169,650.57,570.8169,644.57,552.8169" style="stroke:#181818;stroke-width:1;"/></g><!--reverse link Benutzer to Kunde--><g class="link" data-entity-1="ent0004" data-entity-2="ent0005" data-link-type="extension" data-source-line="105" id="lnk22"><path codeLine="105" d="M835.54,693.6469 C876.64,693.6469 900.73,693.6469 900.73,693.6469 C900.73,693.6469 900.73,775.0169 900.73,826.1969" fill="none" id="Benutzer-backto-Kunde" style="stroke:#181818;stroke-width:1;"/><polygon fill="none" points="817.54,693.6469,835.54,699.6469,835.54,687.6469,817.54,693.6469" style="stroke:#181818;stroke-width:1;"/></g><!--reverse link Benutzer to Admin--><g class="link" data-entity-1="ent0004" data-entity-2="ent0006" data-link-type="extension" data-source-line="106" id="lnk23"><path codeLine="106" d="M740,784.7969 C740,805.1069 740,808.4269 740,826.1369" fill="none" id="Benutzer-backto-Admin" style="stroke:#181818;stroke-width:1;"/><polygon fill="none" points="740,766.7969,734,784.7969,746,784.7969,740,766.7969" style="stroke:#181818;stroke-width:1;"/></g><!--reverse link Kunde to Ticket--><g class="link" data-entity-1="ent0005" data-entity-2="ent0007" data-link-type="dependency" data-source-line="108" id="lnk24"><path codeLine="108" d="M874.43,913.5269 C874.43,979.8069 874.43,1097.6469 874.43,1097.6469 C874.43,1097.6469 842.42,1097.6469 806.9,1097.6469" fill="none" id="Kunde-backto-Ticket" style="stroke:#181818;stroke-width:1;"/><polygon fill="#181818" points="874.43,907.5269,870.43,916.5269,874.43,912.5269,878.43,916.5269,874.43,907.5269" style="stroke:#181818;stroke-width:1;"/><text fill="#000000" font-family="sans-serif" font-size="13" lengthAdjust="spacing" textLength="34.6011" x="839.43" y="1032.4138">autor</text><text fill="#000000" font-family="sans-serif" font-size="13" lengthAdjust="spacing" textLength="8.271" x="854.8861" y="927.2931">1</text><text fill="#000000" font-family="sans-serif" font-size="13" lengthAdjust="spacing" textLength="23.0356" x="814.312" y="1096.5272">0..*</text></g><!--reverse link Admin to Ticket--><g class="link" data-entity-1="ent0006" data-entity-2="ent0007" data-link-type="dependency" data-source-line="109" id="lnk25"><path codeLine="109" d="M731.71,913.2569 C731.71,930.6469 731.71,945.7969 731.71,966.8669" fill="none" id="Admin-backto-Ticket" style="stroke:#181818;stroke-width:1;"/><polygon fill="#181818" points="731.71,907.2569,727.71,916.2569,731.71,912.2569,735.71,916.2569,731.71,907.2569" style="stroke:#181818;stroke-width:1;"/><text fill="#000000" font-family="sans-serif" font-size="13" lengthAdjust="spacing" textLength="67.6152" x="732.71" y="933.1338">bearbeitet</text><text fill="#000000" font-family="sans-serif" font-size="13" lengthAdjust="spacing" textLength="24.8066" x="704.4155" y="927.2803">0..1</text><text fill="#000000" font-family="sans-serif" font-size="13" lengthAdjust="spacing" textLength="23.0356" x="709.2632" y="955.8955">0..*</text></g><!--link Ticket to Prioritaet--><g class="link" data-entity-1="ent0007" data-entity-2="ent0008" data-link-type="dependency" data-source-line="111" id="lnk26"><path codeLine="111" d="M690,1162.1869 C690,1182.7169 690,1197.5269 690,1215.3269" fill="none" id="Ticket-to-Prioritaet" style="stroke:#181818;stroke-width:1;"/><polygon fill="#181818" points="690,1221.3269,694,1212.3269,690,1216.3269,686,1212.3269,690,1221.3269" style="stroke:#181818;stroke-width:1;"/></g><!--link Ticket to Status--><g class="link" data-entity-1="ent0007" data-entity-2="ent0009" data-link-type="dependency" data-source-line="112" id="lnk27"><path codeLine="112" d="M790.03,1162.1869 C790.03,1182.7169 790.03,1197.5269 790.03,1215.3269" fill="none" id="Ticket-to-Status" style="stroke:#181818;stroke-width:1;"/><polygon fill="#181818" points="790.03,1221.3269,794.03,1212.3269,790.03,1216.3269,786.03,1212.3269,790.03,1221.3269" style="stroke:#181818;stroke-width:1;"/></g><!--link Repository to Identifiable--><g class="link" data-entity-1="ent0011" data-entity-2="ent0003" data-link-type="dependency" data-source-line="114" id="lnk28"><path codeLine="114" d="M653.69,413.5069 C653.69,438.9869 653.69,461.0869 653.69,482.0769" fill="none" id="Repository-to-Identifiable" style="stroke:#181818;stroke-width:1;stroke-dasharray:7,7;"/><polygon fill="#181818" points="653.69,488.0769,657.69,479.0769,653.69,483.0769,649.69,479.0769,653.69,488.0769" style="stroke:#181818;stroke-width:1;"/></g><!--link Repository to Ticket--><g class="link" data-entity-1="ent0011" data-entity-2="ent0007" data-link-type="dependency" data-source-line="115" id="lnk29"><path codeLine="115" d="M560.98,413.6569 C560.98,590.1869 560.98,1064.6469 560.98,1064.6469 C560.98,1064.6469 582.03,1064.6469 613.32,1064.6469" fill="none" id="Repository-to-Ticket" style="stroke:#181818;stroke-width:1;"/><polygon fill="#181818" points="619.32,1064.6469,610.32,1060.6469,614.32,1064.6469,610.32,1068.6469,619.32,1064.6469" style="stroke:#181818;stroke-width:1;"/><text fill="#000000" font-family="sans-serif" font-size="13" lengthAdjust="spacing" textLength="8.271" x="549.0727" y="433.2214">1</text><text fill="#000000" font-family="sans-serif" font-size="13" lengthAdjust="spacing" textLength="23.0356" x="588.597" y="1061.1843">0..*</text></g><!--link Repository to Kunde--><g class="link" data-entity-1="ent0011" data-entity-2="ent0005" data-link-type="dependency" data-source-line="116" id="lnk30"><path codeLine="116" d="M687.8,401.6469 C790.89,401.6469 943,401.6469 943,401.6469 C943,401.6469 943,707.1569 943,820.3269" fill="none" id="Repository-to-Kunde" style="stroke:#181818;stroke-width:1;"/><polygon fill="#181818" points="943,826.3269,947,817.3269,943,821.3269,939,817.3269,943,826.3269" style="stroke:#181818;stroke-width:1;"/><text fill="#000000" font-family="sans-serif" font-size="13" lengthAdjust="spacing" textLength="8.271" x="695.5242" y="402.355">1</text><text fill="#000000" font-family="sans-serif" font-size="13" lengthAdjust="spacing" textLength="23.0356" x="918.0986" y="815.4619">0..*</text></g><!--link StorageService to Ticket--><g class="link" data-entity-1="ent0012" data-entity-2="ent0007" data-link-type="dependency" data-source-line="118" id="lnk31"><path codeLine="118" d="M840.75,389.2669 C840.75,536.5469 840.75,1032.6469 840.75,1032.6469 C840.75,1032.6469 832.17,1032.6469 812.85,1032.6469" fill="none" id="StorageService-to-Ticket" style="stroke:#181818;stroke-width:1;stroke-dasharray:7,7;"/><polygon fill="#181818" points="806.85,1032.6469,815.85,1036.6469,811.85,1032.6469,815.85,1028.6469,806.85,1032.6469" style="stroke:#181818;stroke-width:1;"/></g><!--link StorageService to Kunde--><g class="link" data-entity-1="ent0012" data-entity-2="ent0005" data-link-type="dependency" data-source-line="119" id="lnk32"><path codeLine="119" d="M985.27,389.1869 C985.27,486.0669 985.27,723.6169 985.27,820.3069" fill="none" id="StorageService-to-Kunde" style="stroke:#181818;stroke-width:1;stroke-dasharray:7,7;"/><polygon fill="#181818" points="985.27,826.3069,989.27,817.3069,985.27,821.3069,981.27,817.3069,985.27,826.3069" style="stroke:#181818;stroke-width:1;"/></g><!--link ApiService to Kunde--><g class="link" data-entity-1="ent0013" data-entity-2="ent0005" data-link-type="dependency" data-source-line="120" id="lnk33"><path codeLine="120" d="M1237,380.9969 C1237,494.6469 1237,867.6469 1237,867.6469 C1237,867.6469 1120.87,867.6469 1034.04,867.6469" fill="none" id="ApiService-to-Kunde" style="stroke:#181818;stroke-width:1;stroke-dasharray:7,7;"/><polygon fill="#181818" points="1028.04,867.6469,1037.04,871.6469,1033.04,867.6469,1037.04,863.6469,1028.04,867.6469" style="stroke:#181818;stroke-width:1;"/></g><!--link MainFrame to TicketTableModel--><g class="link" data-entity-1="ent0015" data-entity-2="ent0016" data-link-type="dependency" data-source-line="122" id="lnk34"><path codeLine="122" d="M169.3,389.2569 C169.3,416.5569 169.3,446.3669 169.3,473.6669" fill="none" id="MainFrame-to-TicketTableModel" style="stroke:#181818;stroke-width:1;"/><polygon fill="#181818" points="169.3,479.6669,173.3,470.6669,169.3,474.6669,165.3,470.6669,169.3,479.6669" style="stroke:#181818;stroke-width:1;"/></g><!--link MainFrame to TicketController--><g class="link" data-entity-1="ent0015" data-entity-2="ent0019" data-link-type="dependency" data-source-line="123" id="lnk35"><path codeLine="123" d="M239.79,311.6469 C347.12,311.6469 495.24,311.6469 495.24,311.6469 C495.24,311.6469 495.24,262.0069 495.24,214.8369" fill="none" id="MainFrame-to-TicketController" style="stroke:#181818;stroke-width:1;"/><polygon fill="#181818" points="495.24,208.8369,491.24,217.8369,495.24,213.8369,499.24,217.8369,495.24,208.8369" style="stroke:#181818;stroke-width:1;"/></g><!--link TicketController to MainFrame--><g class="link" data-entity-1="ent0019" data-entity-2="ent0015" data-link-type="dependency" data-source-line="125" id="lnk37"><path codeLine="125" d="M497.63,209.0269 C497.63,257.2369 497.63,314.6469 497.63,314.6469 C497.63,314.6469 353.63,314.6469 245.51,314.6469" fill="none" id="TicketController-to-MainFrame" style="stroke:#181818;stroke-width:1;"/><polygon fill="#181818" points="239.51,314.6469,248.51,318.6469,244.51,314.6469,248.51,310.6469,239.51,314.6469" style="stroke:#181818;stroke-width:1;"/></g><!--link TicketTableModel to Ticket--><g class="link" data-entity-1="ent0016" data-entity-2="ent0007" data-link-type="dependency" data-source-line="124" id="lnk36"><path codeLine="124" d="M367.03,556.6469 C483,556.6469 632.18,556.6469 632.18,556.6469 C632.18,556.6469 632.18,813.3169 632.18,960.8169" fill="none" id="TicketTableModel-to-Ticket" style="stroke:#181818;stroke-width:1;"/><polygon fill="#181818" points="632.18,966.8169,636.18,957.8169,632.18,961.8169,628.18,957.8169,632.18,966.8169" style="stroke:#181818;stroke-width:1;"/></g><!--link TicketController to Repository--><g class="link" data-entity-1="ent0019" data-entity-2="ent0011" data-link-type="dependency" data-source-line="126" id="lnk38"><path codeLine="126" d="M595,209.0169 C595,232.7569 595,253.6069 595,277.3569" fill="none" id="TicketController-to-Repository" style="stroke:#181818;stroke-width:1;"/><polygon fill="#181818" points="595,283.3569,599,274.3569,595,278.3569,591,274.3569,595,283.3569" style="stroke:#181818;stroke-width:1;"/></g><!--link TicketController to StorageService--><g class="link" data-entity-1="ent0019" data-entity-2="ent0012" data-link-type="dependency" data-source-line="127" id="lnk39"><path codeLine="127" d="M692.37,209.0569 C692.37,268.9669 692.37,348.6469 692.37,348.6469 C692.37,348.6469 698.1,348.6469 716.07,348.6469" fill="none" id="TicketController-to-StorageService" style="stroke:#181818;stroke-width:1;"/><polygon fill="#181818" points="722.07,348.6469,713.07,344.6469,717.07,348.6469,713.07,352.6469,722.07,348.6469" style="stroke:#181818;stroke-width:1;"/></g><!--link TicketController to ApiService--><g class="link" data-entity-1="ent0019" data-entity-2="ent0013" data-link-type="dependency" data-source-line="128" id="lnk40"><path codeLine="128" d="M697.44,144.6469 C878.69,144.6469 1237,144.6469 1237,144.6469 C1237,144.6469 1237,252.7269 1237,310.2169" fill="none" id="TicketController-to-ApiService" style="stroke:#181818;stroke-width:1;"/><polygon fill="#181818" points="1237,316.2169,1241,307.2169,1237,311.2169,1233,307.2169,1237,316.2169" style="stroke:#181818;stroke-width:1;"/></g><!--link TicketController to TicketFormDialog--><g class="link" data-entity-1="ent0019" data-entity-2="ent0017" data-link-type="dependency" data-source-line="129" id="lnk41"><path codeLine="129" d="M500.03,209.0569 C500.03,268.9669 500.03,348.6469 500.03,348.6469 C500.03,348.6469 480.87,348.6469 451.89,348.6469" fill="none" id="TicketController-to-TicketFormDialog" style="stroke:#181818;stroke-width:1;"/><polygon fill="#181818" points="445.89,348.6469,454.89,352.6469,450.89,348.6469,454.89,344.6469,445.89,348.6469" style="stroke:#181818;stroke-width:1;"/></g><?plantuml-src ZLNDRjiu4BxpAGYVlDlQo5w3882Ts8sGlo8IUkYbeCMnHOGY1P9ErctpDdsJVR4TYev4MR9RNnBDD_FD_z0-2rKnmqgQIsRjp3aZLbi7IQvLAhu3FIEsKR45u_fLg0rTCsaXGgHGu7OLK6rSeIEWOlapsq3gTXAeWTmnjP50Y1CE1VFbrqcwimxAWcqjpKJ-3Ava2YqCdT0lO42eDSiB1vRU-W11SS4so5mIikUcetlDGSeH_K4e_eHoOD08QC91ER4MR8M-0kX_7pRW4Zx-YvxJEwqsjVoDr7_g8j0vgAtxZY6qDXF1O_LQf5W9A4onPB4OIYPaNpxazLt-W4mrCc2py7I7O2VSswtYSNuJnWrWgORvPW4yoJZZfL0nuyft8Y-66US1FCaOMlkRWk9Gm43bqBlD2_InskBezU7A26s4OyX_JZyt7ws2TSpXU7bB_yyVjIJpiHphIU3PerrAsw31gzTvqOB79S7nAgD0ewey98lhf-HJytsVPDdYhlcyURowwH45Tn79utAvU6Y-aeTliwVv8iaQoQT5UdLpzvYcUwqtyXOjqpLpe0ec7HRxVQL23v-WqbOuRNONsMMyJuppCPQhn5IpJhurQg3KBt12OLjnz7b2OIqKd--mKytCU9siEzOoTEjEM8VXzISmnS3z9GBp8lBEER2L7rymQYpHkENuI7rSulEQyMOC-i59XbTcFAnvD9XP9GO2yLJrCgisbVhxSg1FxqTAuswkvN-_C8Dkk-wPK4lZRzIFk1bhNFyYyoTnt4_6ppP8FDF0myRMEk7VOqjTSzKd-E361dZcnaQ_9fZ5lqY5n_c0CGvhFBGjiQ-bDkMrO59lEWqiz6kGziEDIvOws8BfpNNGlzBA6Irbv-n_o0rWPwDQTEi5NBYZ85O4JjYAiiBNKk3nZ7hULR7iPMzl3qk3UNMUjukVqsdpS0r0-wAGvcsx-3cPXAVZG5OVVqB2gpBwPqGlK3Wwcqx_7hsVyNFAjhXE9BmJ7ZkYjW9cLe2RZPxtmidaCZxIaNH_IabxP-XqUjbvnMFCX-RDEZvFA8HSoS4Ty1xsfWD8i8csjHMITh-yayDT68JR6IEztMcrI6yWFTRm3SDjtiDuDxbXdJRFOVnm1_y7?></g></svg>